<?xml version="1.0" standalone="no"?><!-- Generator: Gravit.io --><svg xmlns="http://www.w3.org/2000/svg" xmlns:xlink="http://www.w3.org/1999/xlink" style="isolation:isolate" viewBox="524 296 192 192" width="192" height="192"><g id="Group"><path d=" M 524 392 C 524 339.016 567.016 296 620 296 C 672.984 296 716 339.016 716 392 C 716 444.984 672.984 488 620 488 C 567.016 488 524 444.984 524 392 Z " fill="rgb(85,93,96)"/><path d=" M 559 392.528 C 559 376.345 565.448 360.858 576.889 349.417 C 588.331 337.975 603.818 331.528 620 331.528 C 636.182 331.528 651.669 337.975 663.111 349.417 C 674.552 360.858 681 376.345 681 392.528 C 681 408.71 674.552 424.197 663.111 435.638 C 651.669 447.08 636.182 453.528 620 453.528 C 603.818 453.528 588.331 447.08 576.889 435.638 C 565.448 424.197 559 408.71 559 392.528 Z  M 639.331 346.224 L 620 346.224 L 600.669 346.224 C 598.612 346.224 597.777 344.777 598.806 342.996 L 608.471 326.255 L 618.136 309.514 C 619.165 307.733 620.835 307.733 621.864 309.514 L 631.529 326.255 L 641.194 342.996 C 642.223 344.777 641.388 346.224 639.331 346.224 Z " fill="rgb(198,198,198)"/></g></svg>